<?xml version="1.0" encoding="utf-8" standalone="no"?>
<!DOCTYPE svg PUBLIC "-//W3C//DTD SVG 1.1//EN"
  "http://www.w3.org/Graphics/SVG/1.1/DTD/svg11.dtd">
<svg xmlns:xlink="http://www.w3.org/1999/xlink" width="460.8pt" height="345.6pt" viewBox="0 0 460.8 345.6" xmlns="http://www.w3.org/2000/svg" version="1.1">
 <metadata>
  <rdf:RDF xmlns:dc="http://purl.org/dc/elements/1.1/" xmlns:cc="http://creativecommons.org/ns#" xmlns:rdf="http://www.w3.org/1999/02/22-rdf-syntax-ns#">
   <cc:Work>
    <dc:type rdf:resource="http://purl.org/dc/dcmitype/StillImage"/>
    <dc:date>2023-11-25T15:46:28.708936</dc:date>
    <dc:format>image/svg+xml</dc:format>
    <dc:creator>
     <cc:Agent>
      <dc:title>Matplotlib v3.8.1, https://matplotlib.org/</dc:title>
     </cc:Agent>
    </dc:creator>
   </cc:Work>
  </rdf:RDF>
 </metadata>
 <defs>
  <style type="text/css">*{stroke-linejoin: round; stroke-linecap: butt}</style>
 </defs>
 <g id="figure_1">
  <g id="patch_1">
   <path d="M 0 345.6 
L 460.8 345.6 
L 460.8 0 
L 0 0 
z
" style="fill: #ffffff"/>
  </g>
  <g id="axes_1">
   <g id="patch_2">
    <path d="M 47.72 303.64 
L 426.099322 303.64 
L 426.099322 10.8 
L 47.72 10.8 
z
" style="fill: #ffffff"/>
   </g>
   <g id="matplotlib.axis_1">
    <g id="xtick_1">
     <g id="line2d_1">
      <defs>
       <path id="m3686c28ab1" d="M 0 0 
L 0 3.5 
" style="stroke: #000000; stroke-width: 0.8"/>
      </defs>
      <g>
       <use xlink:href="#m3686c28ab1" x="64.91906" y="303.64" style="stroke: #000000; stroke-width: 0.8"/>
      </g>
     </g>
     <g id="text_1">
      <!-- 2019-01-01 -->
      <g transform="translate(35.861248 318.238437) scale(0.1 -0.1)">
       <defs>
        <path id="DejaVuSans-32" d="M 1228 531 
L 3431 531 
L 3431 0 
L 469 0 
L 469 531 
Q 828 903 1448 1529 
Q 2069 2156 2228 2338 
Q 2531 2678 2651 2914 
Q 2772 3150 2772 3378 
Q 2772 3750 2511 3984 
Q 2250 4219 1831 4219 
Q 1534 4219 1204 4116 
Q 875 4013 500 3803 
L 500 4441 
Q 881 4594 1212 4672 
Q 1544 4750 1819 4750 
Q 2544 4750 2975 4387 
Q 3406 4025 3406 3419 
Q 3406 3131 3298 2873 
Q 3191 2616 2906 2266 
Q 2828 2175 2409 1742 
Q 1991 1309 1228 531 
z
" transform="scale(0.015625)"/>
        <path id="DejaVuSans-30" d="M 2034 4250 
Q 1547 4250 1301 3770 
Q 1056 3291 1056 2328 
Q 1056 1369 1301 889 
Q 1547 409 2034 409 
Q 2525 409 2770 889 
Q 3016 1369 3016 2328 
Q 3016 3291 2770 3770 
Q 2525 4250 2034 4250 
z
M 2034 4750 
Q 2819 4750 3233 4129 
Q 3647 3509 3647 2328 
Q 3647 1150 3233 529 
Q 2819 -91 2034 -91 
Q 1250 -91 836 529 
Q 422 1150 422 2328 
Q 422 3509 836 4129 
Q 1250 4750 2034 4750 
z
" transform="scale(0.015625)"/>
        <path id="DejaVuSans-31" d="M 794 531 
L 1825 531 
L 1825 4091 
L 703 3866 
L 703 4441 
L 1819 4666 
L 2450 4666 
L 2450 531 
L 3481 531 
L 3481 0 
L 794 0 
L 794 531 
z
" transform="scale(0.015625)"/>
        <path id="DejaVuSans-39" d="M 703 97 
L 703 672 
Q 941 559 1184 500 
Q 1428 441 1663 441 
Q 2288 441 2617 861 
Q 2947 1281 2994 2138 
Q 2813 1869 2534 1725 
Q 2256 1581 1919 1581 
Q 1219 1581 811 2004 
Q 403 2428 403 3163 
Q 403 3881 828 4315 
Q 1253 4750 1959 4750 
Q 2769 4750 3195 4129 
Q 3622 3509 3622 2328 
Q 3622 1225 3098 567 
Q 2575 -91 1691 -91 
Q 1453 -91 1209 -44 
Q 966 3 703 97 
z
M 1959 2075 
Q 2384 2075 2632 2365 
Q 2881 2656 2881 3163 
Q 2881 3666 2632 3958 
Q 2384 4250 1959 4250 
Q 1534 4250 1286 3958 
Q 1038 3666 1038 3163 
Q 1038 2656 1286 2365 
Q 1534 2075 1959 2075 
z
" transform="scale(0.015625)"/>
        <path id="DejaVuSans-2d" d="M 313 2009 
L 1997 2009 
L 1997 1497 
L 313 1497 
L 313 2009 
z
" transform="scale(0.015625)"/>
       </defs>
       <use xlink:href="#DejaVuSans-32"/>
       <use xlink:href="#DejaVuSans-30" x="63.623047"/>
       <use xlink:href="#DejaVuSans-31" x="127.246094"/>
       <use xlink:href="#DejaVuSans-39" x="190.869141"/>
       <use xlink:href="#DejaVuSans-2d" x="254.492188"/>
       <use xlink:href="#DejaVuSans-30" x="290.576172"/>
       <use xlink:href="#DejaVuSans-31" x="354.199219"/>
       <use xlink:href="#DejaVuSans-2d" x="417.822266"/>
       <use xlink:href="#DejaVuSans-30" x="453.90625"/>
       <use xlink:href="#DejaVuSans-31" x="517.529297"/>
      </g>
     </g>
    </g>
    <g id="xtick_2">
     <g id="line2d_2">
      <g>
       <use xlink:href="#m3686c28ab1" x="110.847009" y="303.64" style="stroke: #000000; stroke-width: 0.8"/>
      </g>
     </g>
     <g id="text_2">
      <!-- 2019-01-05 -->
      <g transform="translate(81.789197 318.238437) scale(0.1 -0.1)">
       <defs>
        <path id="DejaVuSans-35" d="M 691 4666 
L 3169 4666 
L 3169 4134 
L 1269 4134 
L 1269 2991 
Q 1406 3038 1543 3061 
Q 1681 3084 1819 3084 
Q 2600 3084 3056 2656 
Q 3513 2228 3513 1497 
Q 3513 744 3044 326 
Q 2575 -91 1722 -91 
Q 1428 -91 1123 -41 
Q 819 9 494 109 
L 494 744 
Q 775 591 1075 516 
Q 1375 441 1709 441 
Q 2250 441 2565 725 
Q 2881 1009 2881 1497 
Q 2881 1984 2565 2268 
Q 2250 2553 1709 2553 
Q 1456 2553 1204 2497 
Q 953 2441 691 2322 
L 691 4666 
z
" transform="scale(0.015625)"/>
       </defs>
       <use xlink:href="#DejaVuSans-32"/>
       <use xlink:href="#DejaVuSans-30" x="63.623047"/>
       <use xlink:href="#DejaVuSans-31" x="127.246094"/>
       <use xlink:href="#DejaVuSans-39" x="190.869141"/>
       <use xlink:href="#DejaVuSans-2d" x="254.492188"/>
       <use xlink:href="#DejaVuSans-30" x="290.576172"/>
       <use xlink:href="#DejaVuSans-31" x="354.199219"/>
       <use xlink:href="#DejaVuSans-2d" x="417.822266"/>
       <use xlink:href="#DejaVuSans-30" x="453.90625"/>
       <use xlink:href="#DejaVuSans-35" x="517.529297"/>
      </g>
     </g>
    </g>
    <g id="xtick_3">
     <g id="line2d_3">
      <g>
       <use xlink:href="#m3686c28ab1" x="156.774958" y="303.64" style="stroke: #000000; stroke-width: 0.8"/>
      </g>
     </g>
     <g id="text_3">
      <!-- 2019-01-09 -->
      <g transform="translate(127.717146 318.238437) scale(0.1 -0.1)">
       <use xlink:href="#DejaVuSans-32"/>
       <use xlink:href="#DejaVuSans-30" x="63.623047"/>
       <use xlink:href="#DejaVuSans-31" x="127.246094"/>
       <use xlink:href="#DejaVuSans-39" x="190.869141"/>
       <use xlink:href="#DejaVuSans-2d" x="254.492188"/>
       <use xlink:href="#DejaVuSans-30" x="290.576172"/>
       <use xlink:href="#DejaVuSans-31" x="354.199219"/>
       <use xlink:href="#DejaVuSans-2d" x="417.822266"/>
       <use xlink:href="#DejaVuSans-30" x="453.90625"/>
       <use xlink:href="#DejaVuSans-39" x="517.529297"/>
      </g>
     </g>
    </g>
    <g id="xtick_4">
     <g id="line2d_4">
      <g>
       <use xlink:href="#m3686c28ab1" x="202.702907" y="303.64" style="stroke: #000000; stroke-width: 0.8"/>
      </g>
     </g>
     <g id="text_4">
      <!-- 2019-01-13 -->
      <g transform="translate(173.645095 318.238437) scale(0.1 -0.1)">
       <defs>
        <path id="DejaVuSans-33" d="M 2597 2516 
Q 3050 2419 3304 2112 
Q 3559 1806 3559 1356 
Q 3559 666 3084 287 
Q 2609 -91 1734 -91 
Q 1441 -91 1130 -33 
Q 819 25 488 141 
L 488 750 
Q 750 597 1062 519 
Q 1375 441 1716 441 
Q 2309 441 2620 675 
Q 2931 909 2931 1356 
Q 2931 1769 2642 2001 
Q 2353 2234 1838 2234 
L 1294 2234 
L 1294 2753 
L 1863 2753 
Q 2328 2753 2575 2939 
Q 2822 3125 2822 3475 
Q 2822 3834 2567 4026 
Q 2313 4219 1838 4219 
Q 1578 4219 1281 4162 
Q 984 4106 628 3988 
L 628 4550 
Q 988 4650 1302 4700 
Q 1616 4750 1894 4750 
Q 2613 4750 3031 4423 
Q 3450 4097 3450 3541 
Q 3450 3153 3228 2886 
Q 3006 2619 2597 2516 
z
" transform="scale(0.015625)"/>
       </defs>
       <use xlink:href="#DejaVuSans-32"/>
       <use xlink:href="#DejaVuSans-30" x="63.623047"/>
       <use xlink:href="#DejaVuSans-31" x="127.246094"/>
       <use xlink:href="#DejaVuSans-39" x="190.869141"/>
       <use xlink:href="#DejaVuSans-2d" x="254.492188"/>
       <use xlink:href="#DejaVuSans-30" x="290.576172"/>
       <use xlink:href="#DejaVuSans-31" x="354.199219"/>
       <use xlink:href="#DejaVuSans-2d" x="417.822266"/>
       <use xlink:href="#DejaVuSans-31" x="453.90625"/>
       <use xlink:href="#DejaVuSans-33" x="517.529297"/>
      </g>
     </g>
    </g>
    <g id="xtick_5">
     <g id="line2d_5">
      <g>
       <use xlink:href="#m3686c28ab1" x="248.630856" y="303.64" style="stroke: #000000; stroke-width: 0.8"/>
      </g>
     </g>
     <g id="text_5">
      <!-- 2019-01-17 -->
      <g transform="translate(219.573044 318.238437) scale(0.1 -0.1)">
       <defs>
        <path id="DejaVuSans-37" d="M 525 4666 
L 3525 4666 
L 3525 4397 
L 1831 0 
L 1172 0 
L 2766 4134 
L 525 4134 
L 525 4666 
z
" transform="scale(0.015625)"/>
       </defs>
       <use xlink:href="#DejaVuSans-32"/>
       <use xlink:href="#DejaVuSans-30" x="63.623047"/>
       <use xlink:href="#DejaVuSans-31" x="127.246094"/>
       <use xlink:href="#DejaVuSans-39" x="190.869141"/>
       <use xlink:href="#DejaVuSans-2d" x="254.492188"/>
       <use xlink:href="#DejaVuSans-30" x="290.576172"/>
       <use xlink:href="#DejaVuSans-31" x="354.199219"/>
       <use xlink:href="#DejaVuSans-2d" x="417.822266"/>
       <use xlink:href="#DejaVuSans-31" x="453.90625"/>
       <use xlink:href="#DejaVuSans-37" x="517.529297"/>
      </g>
     </g>
    </g>
    <g id="xtick_6">
     <g id="line2d_6">
      <g>
       <use xlink:href="#m3686c28ab1" x="294.558805" y="303.64" style="stroke: #000000; stroke-width: 0.8"/>
      </g>
     </g>
     <g id="text_6">
      <!-- 2019-01-21 -->
      <g transform="translate(265.500993 318.238437) scale(0.1 -0.1)">
       <use xlink:href="#DejaVuSans-32"/>
       <use xlink:href="#DejaVuSans-30" x="63.623047"/>
       <use xlink:href="#DejaVuSans-31" x="127.246094"/>
       <use xlink:href="#DejaVuSans-39" x="190.869141"/>
       <use xlink:href="#DejaVuSans-2d" x="254.492188"/>
       <use xlink:href="#DejaVuSans-30" x="290.576172"/>
       <use xlink:href="#DejaVuSans-31" x="354.199219"/>
       <use xlink:href="#DejaVuSans-2d" x="417.822266"/>
       <use xlink:href="#DejaVuSans-32" x="453.90625"/>
       <use xlink:href="#DejaVuSans-31" x="517.529297"/>
      </g>
     </g>
    </g>
    <g id="xtick_7">
     <g id="line2d_7">
      <g>
       <use xlink:href="#m3686c28ab1" x="340.486754" y="303.64" style="stroke: #000000; stroke-width: 0.8"/>
      </g>
     </g>
     <g id="text_7">
      <!-- 2019-01-25 -->
      <g transform="translate(311.428942 318.238437) scale(0.1 -0.1)">
       <use xlink:href="#DejaVuSans-32"/>
       <use xlink:href="#DejaVuSans-30" x="63.623047"/>
       <use xlink:href="#DejaVuSans-31" x="127.246094"/>
       <use xlink:href="#DejaVuSans-39" x="190.869141"/>
       <use xlink:href="#DejaVuSans-2d" x="254.492188"/>
       <use xlink:href="#DejaVuSans-30" x="290.576172"/>
       <use xlink:href="#DejaVuSans-31" x="354.199219"/>
       <use xlink:href="#DejaVuSans-2d" x="417.822266"/>
       <use xlink:href="#DejaVuSans-32" x="453.90625"/>
       <use xlink:href="#DejaVuSans-35" x="517.529297"/>
      </g>
     </g>
    </g>
    <g id="xtick_8">
     <g id="line2d_8">
      <g>
       <use xlink:href="#m3686c28ab1" x="386.414703" y="303.64" style="stroke: #000000; stroke-width: 0.8"/>
      </g>
     </g>
     <g id="text_8">
      <!-- 2019-01-29 -->
      <g transform="translate(357.356891 318.238437) scale(0.1 -0.1)">
       <use xlink:href="#DejaVuSans-32"/>
       <use xlink:href="#DejaVuSans-30" x="63.623047"/>
       <use xlink:href="#DejaVuSans-31" x="127.246094"/>
       <use xlink:href="#DejaVuSans-39" x="190.869141"/>
       <use xlink:href="#DejaVuSans-2d" x="254.492188"/>
       <use xlink:href="#DejaVuSans-30" x="290.576172"/>
       <use xlink:href="#DejaVuSans-31" x="354.199219"/>
       <use xlink:href="#DejaVuSans-2d" x="417.822266"/>
       <use xlink:href="#DejaVuSans-32" x="453.90625"/>
       <use xlink:href="#DejaVuSans-39" x="517.529297"/>
      </g>
     </g>
    </g>
    <g id="xtick_9">
     <g id="line2d_9">
      <g>
       <use xlink:href="#m3686c28ab1" x="420.860665" y="303.64" style="stroke: #000000; stroke-width: 0.8"/>
      </g>
     </g>
     <g id="text_9">
      <!-- 2019-02-01 -->
      <g transform="translate(391.802852 318.238437) scale(0.1 -0.1)">
       <use xlink:href="#DejaVuSans-32"/>
       <use xlink:href="#DejaVuSans-30" x="63.623047"/>
       <use xlink:href="#DejaVuSans-31" x="127.246094"/>
       <use xlink:href="#DejaVuSans-39" x="190.869141"/>
       <use xlink:href="#DejaVuSans-2d" x="254.492188"/>
       <use xlink:href="#DejaVuSans-30" x="290.576172"/>
       <use xlink:href="#DejaVuSans-32" x="354.199219"/>
       <use xlink:href="#DejaVuSans-2d" x="417.822266"/>
       <use xlink:href="#DejaVuSans-30" x="453.90625"/>
       <use xlink:href="#DejaVuSans-31" x="517.529297"/>
      </g>
     </g>
    </g>
    <g id="text_10">
     <!-- Timestamp -->
     <g transform="translate(209.00263 331.916562) scale(0.1 -0.1)">
      <defs>
       <path id="DejaVuSans-54" d="M -19 4666 
L 3928 4666 
L 3928 4134 
L 2272 4134 
L 2272 0 
L 1638 0 
L 1638 4134 
L -19 4134 
L -19 4666 
z
" transform="scale(0.015625)"/>
       <path id="DejaVuSans-69" d="M 603 3500 
L 1178 3500 
L 1178 0 
L 603 0 
L 603 3500 
z
M 603 4863 
L 1178 4863 
L 1178 4134 
L 603 4134 
L 603 4863 
z
" transform="scale(0.015625)"/>
       <path id="DejaVuSans-6d" d="M 3328 2828 
Q 3544 3216 3844 3400 
Q 4144 3584 4550 3584 
Q 5097 3584 5394 3201 
Q 5691 2819 5691 2113 
L 5691 0 
L 5113 0 
L 5113 2094 
Q 5113 2597 4934 2840 
Q 4756 3084 4391 3084 
Q 3944 3084 3684 2787 
Q 3425 2491 3425 1978 
L 3425 0 
L 2847 0 
L 2847 2094 
Q 2847 2600 2669 2842 
Q 2491 3084 2119 3084 
Q 1678 3084 1418 2786 
Q 1159 2488 1159 1978 
L 1159 0 
L 581 0 
L 581 3500 
L 1159 3500 
L 1159 2956 
Q 1356 3278 1631 3431 
Q 1906 3584 2284 3584 
Q 2666 3584 2933 3390 
Q 3200 3197 3328 2828 
z
" transform="scale(0.015625)"/>
       <path id="DejaVuSans-65" d="M 3597 1894 
L 3597 1613 
L 953 1613 
Q 991 1019 1311 708 
Q 1631 397 2203 397 
Q 2534 397 2845 478 
Q 3156 559 3463 722 
L 3463 178 
Q 3153 47 2828 -22 
Q 2503 -91 2169 -91 
Q 1331 -91 842 396 
Q 353 884 353 1716 
Q 353 2575 817 3079 
Q 1281 3584 2069 3584 
Q 2775 3584 3186 3129 
Q 3597 2675 3597 1894 
z
M 3022 2063 
Q 3016 2534 2758 2815 
Q 2500 3097 2075 3097 
Q 1594 3097 1305 2825 
Q 1016 2553 972 2059 
L 3022 2063 
z
" transform="scale(0.015625)"/>
       <path id="DejaVuSans-73" d="M 2834 3397 
L 2834 2853 
Q 2591 2978 2328 3040 
Q 2066 3103 1784 3103 
Q 1356 3103 1142 2972 
Q 928 2841 928 2578 
Q 928 2378 1081 2264 
Q 1234 2150 1697 2047 
L 1894 2003 
Q 2506 1872 2764 1633 
Q 3022 1394 3022 966 
Q 3022 478 2636 193 
Q 2250 -91 1575 -91 
Q 1294 -91 989 -36 
Q 684 19 347 128 
L 347 722 
Q 666 556 975 473 
Q 1284 391 1588 391 
Q 1994 391 2212 530 
Q 2431 669 2431 922 
Q 2431 1156 2273 1281 
Q 2116 1406 1581 1522 
L 1381 1569 
Q 847 1681 609 1914 
Q 372 2147 372 2553 
Q 372 3047 722 3315 
Q 1072 3584 1716 3584 
Q 2034 3584 2315 3537 
Q 2597 3491 2834 3397 
z
" transform="scale(0.015625)"/>
       <path id="DejaVuSans-74" d="M 1172 4494 
L 1172 3500 
L 2356 3500 
L 2356 3053 
L 1172 3053 
L 1172 1153 
Q 1172 725 1289 603 
Q 1406 481 1766 481 
L 2356 481 
L 2356 0 
L 1766 0 
Q 1100 0 847 248 
Q 594 497 594 1153 
L 594 3053 
L 172 3053 
L 172 3500 
L 594 3500 
L 594 4494 
L 1172 4494 
z
" transform="scale(0.015625)"/>
       <path id="DejaVuSans-61" d="M 2194 1759 
Q 1497 1759 1228 1600 
Q 959 1441 959 1056 
Q 959 750 1161 570 
Q 1363 391 1709 391 
Q 2188 391 2477 730 
Q 2766 1069 2766 1631 
L 2766 1759 
L 2194 1759 
z
M 3341 1997 
L 3341 0 
L 2766 0 
L 2766 531 
Q 2569 213 2275 61 
Q 1981 -91 1556 -91 
Q 1019 -91 701 211 
Q 384 513 384 1019 
Q 384 1609 779 1909 
Q 1175 2209 1959 2209 
L 2766 2209 
L 2766 2266 
Q 2766 2663 2505 2880 
Q 2244 3097 1772 3097 
Q 1472 3097 1187 3025 
Q 903 2953 641 2809 
L 641 3341 
Q 956 3463 1253 3523 
Q 1550 3584 1831 3584 
Q 2591 3584 2966 3190 
Q 3341 2797 3341 1997 
z
" transform="scale(0.015625)"/>
       <path id="DejaVuSans-70" d="M 1159 525 
L 1159 -1331 
L 581 -1331 
L 581 3500 
L 1159 3500 
L 1159 2969 
Q 1341 3281 1617 3432 
Q 1894 3584 2278 3584 
Q 2916 3584 3314 3078 
Q 3713 2572 3713 1747 
Q 3713 922 3314 415 
Q 2916 -91 2278 -91 
Q 1894 -91 1617 61 
Q 1341 213 1159 525 
z
M 3116 1747 
Q 3116 2381 2855 2742 
Q 2594 3103 2138 3103 
Q 1681 3103 1420 2742 
Q 1159 2381 1159 1747 
Q 1159 1113 1420 752 
Q 1681 391 2138 391 
Q 2594 391 2855 752 
Q 3116 1113 3116 1747 
z
" transform="scale(0.015625)"/>
      </defs>
      <use xlink:href="#DejaVuSans-54"/>
      <use xlink:href="#DejaVuSans-69" x="57.958984"/>
      <use xlink:href="#DejaVuSans-6d" x="85.742188"/>
      <use xlink:href="#DejaVuSans-65" x="183.154297"/>
      <use xlink:href="#DejaVuSans-73" x="244.677734"/>
      <use xlink:href="#DejaVuSans-74" x="296.777344"/>
      <use xlink:href="#DejaVuSans-61" x="335.986328"/>
      <use xlink:href="#DejaVuSans-6d" x="397.265625"/>
      <use xlink:href="#DejaVuSans-70" x="494.677734"/>
     </g>
    </g>
   </g>
   <g id="matplotlib.axis_2">
    <g id="ytick_1">
     <g id="line2d_10">
      <defs>
       <path id="m6f58d19508" d="M 0 0 
L -3.5 0 
" style="stroke: #000000; stroke-width: 0.8"/>
      </defs>
      <g>
       <use xlink:href="#m6f58d19508" x="47.72" y="290.329091" style="stroke: #000000; stroke-width: 0.8"/>
      </g>
     </g>
     <g id="text_11">
      <!-- 0.0 -->
      <g transform="translate(24.816875 294.12831) scale(0.1 -0.1)">
       <defs>
        <path id="DejaVuSans-2e" d="M 684 794 
L 1344 794 
L 1344 0 
L 684 0 
L 684 794 
z
" transform="scale(0.015625)"/>
       </defs>
       <use xlink:href="#DejaVuSans-30"/>
       <use xlink:href="#DejaVuSans-2e" x="63.623047"/>
       <use xlink:href="#DejaVuSans-30" x="95.410156"/>
      </g>
     </g>
    </g>
    <g id="ytick_2">
     <g id="line2d_11">
      <g>
       <use xlink:href="#m6f58d19508" x="47.72" y="241.667405" style="stroke: #000000; stroke-width: 0.8"/>
      </g>
     </g>
     <g id="text_12">
      <!-- 0.1 -->
      <g transform="translate(24.816875 245.466623) scale(0.1 -0.1)">
       <use xlink:href="#DejaVuSans-30"/>
       <use xlink:href="#DejaVuSans-2e" x="63.623047"/>
       <use xlink:href="#DejaVuSans-31" x="95.410156"/>
      </g>
     </g>
    </g>
    <g id="ytick_3">
     <g id="line2d_12">
      <g>
       <use xlink:href="#m6f58d19508" x="47.72" y="193.005718" style="stroke: #000000; stroke-width: 0.8"/>
      </g>
     </g>
     <g id="text_13">
      <!-- 0.2 -->
      <g transform="translate(24.816875 196.804937) scale(0.1 -0.1)">
       <use xlink:href="#DejaVuSans-30"/>
       <use xlink:href="#DejaVuSans-2e" x="63.623047"/>
       <use xlink:href="#DejaVuSans-32" x="95.410156"/>
      </g>
     </g>
    </g>
    <g id="ytick_4">
     <g id="line2d_13">
      <g>
       <use xlink:href="#m6f58d19508" x="47.72" y="144.344032" style="stroke: #000000; stroke-width: 0.8"/>
      </g>
     </g>
     <g id="text_14">
      <!-- 0.3 -->
      <g transform="translate(24.816875 148.14325) scale(0.1 -0.1)">
       <use xlink:href="#DejaVuSans-30"/>
       <use xlink:href="#DejaVuSans-2e" x="63.623047"/>
       <use xlink:href="#DejaVuSans-33" x="95.410156"/>
      </g>
     </g>
    </g>
    <g id="ytick_5">
     <g id="line2d_14">
      <g>
       <use xlink:href="#m6f58d19508" x="47.72" y="95.682345" style="stroke: #000000; stroke-width: 0.8"/>
      </g>
     </g>
     <g id="text_15">
      <!-- 0.4 -->
      <g transform="translate(24.816875 99.481564) scale(0.1 -0.1)">
       <defs>
        <path id="DejaVuSans-34" d="M 2419 4116 
L 825 1625 
L 2419 1625 
L 2419 4116 
z
M 2253 4666 
L 3047 4666 
L 3047 1625 
L 3713 1625 
L 3713 1100 
L 3047 1100 
L 3047 0 
L 2419 0 
L 2419 1100 
L 313 1100 
L 313 1709 
L 2253 4666 
z
" transform="scale(0.015625)"/>
       </defs>
       <use xlink:href="#DejaVuSans-30"/>
       <use xlink:href="#DejaVuSans-2e" x="63.623047"/>
       <use xlink:href="#DejaVuSans-34" x="95.410156"/>
      </g>
     </g>
    </g>
    <g id="ytick_6">
     <g id="line2d_15">
      <g>
       <use xlink:href="#m6f58d19508" x="47.72" y="47.020659" style="stroke: #000000; stroke-width: 0.8"/>
      </g>
     </g>
     <g id="text_16">
      <!-- 0.5 -->
      <g transform="translate(24.816875 50.819878) scale(0.1 -0.1)">
       <use xlink:href="#DejaVuSans-30"/>
       <use xlink:href="#DejaVuSans-2e" x="63.623047"/>
       <use xlink:href="#DejaVuSans-35" x="95.410156"/>
      </g>
     </g>
    </g>
    <g id="text_17">
     <!-- Power (W) -->
     <g transform="translate(18.737188 182.768438) rotate(-90) scale(0.1 -0.1)">
      <defs>
       <path id="DejaVuSans-50" d="M 1259 4147 
L 1259 2394 
L 2053 2394 
Q 2494 2394 2734 2622 
Q 2975 2850 2975 3272 
Q 2975 3691 2734 3919 
Q 2494 4147 2053 4147 
L 1259 4147 
z
M 628 4666 
L 2053 4666 
Q 2838 4666 3239 4311 
Q 3641 3956 3641 3272 
Q 3641 2581 3239 2228 
Q 2838 1875 2053 1875 
L 1259 1875 
L 1259 0 
L 628 0 
L 628 4666 
z
" transform="scale(0.015625)"/>
       <path id="DejaVuSans-6f" d="M 1959 3097 
Q 1497 3097 1228 2736 
Q 959 2375 959 1747 
Q 959 1119 1226 758 
Q 1494 397 1959 397 
Q 2419 397 2687 759 
Q 2956 1122 2956 1747 
Q 2956 2369 2687 2733 
Q 2419 3097 1959 3097 
z
M 1959 3584 
Q 2709 3584 3137 3096 
Q 3566 2609 3566 1747 
Q 3566 888 3137 398 
Q 2709 -91 1959 -91 
Q 1206 -91 779 398 
Q 353 888 353 1747 
Q 353 2609 779 3096 
Q 1206 3584 1959 3584 
z
" transform="scale(0.015625)"/>
       <path id="DejaVuSans-77" d="M 269 3500 
L 844 3500 
L 1563 769 
L 2278 3500 
L 2956 3500 
L 3675 769 
L 4391 3500 
L 4966 3500 
L 4050 0 
L 3372 0 
L 2619 2869 
L 1863 0 
L 1184 0 
L 269 3500 
z
" transform="scale(0.015625)"/>
       <path id="DejaVuSans-72" d="M 2631 2963 
Q 2534 3019 2420 3045 
Q 2306 3072 2169 3072 
Q 1681 3072 1420 2755 
Q 1159 2438 1159 1844 
L 1159 0 
L 581 0 
L 581 3500 
L 1159 3500 
L 1159 2956 
Q 1341 3275 1631 3429 
Q 1922 3584 2338 3584 
Q 2397 3584 2469 3576 
Q 2541 3569 2628 3553 
L 2631 2963 
z
" transform="scale(0.015625)"/>
       <path id="DejaVuSans-20" transform="scale(0.015625)"/>
       <path id="DejaVuSans-28" d="M 1984 4856 
Q 1566 4138 1362 3434 
Q 1159 2731 1159 2009 
Q 1159 1288 1364 580 
Q 1569 -128 1984 -844 
L 1484 -844 
Q 1016 -109 783 600 
Q 550 1309 550 2009 
Q 550 2706 781 3412 
Q 1013 4119 1484 4856 
L 1984 4856 
z
" transform="scale(0.015625)"/>
       <path id="DejaVuSans-57" d="M 213 4666 
L 850 4666 
L 1831 722 
L 2809 4666 
L 3519 4666 
L 4500 722 
L 5478 4666 
L 6119 4666 
L 4947 0 
L 4153 0 
L 3169 4050 
L 2175 0 
L 1381 0 
L 213 4666 
z
" transform="scale(0.015625)"/>
       <path id="DejaVuSans-29" d="M 513 4856 
L 1013 4856 
Q 1481 4119 1714 3412 
Q 1947 2706 1947 2009 
Q 1947 1309 1714 600 
Q 1481 -109 1013 -844 
L 513 -844 
Q 928 -128 1133 580 
Q 1338 1288 1338 2009 
Q 1338 2731 1133 3434 
Q 928 4138 513 4856 
z
" transform="scale(0.015625)"/>
      </defs>
      <use xlink:href="#DejaVuSans-50"/>
      <use xlink:href="#DejaVuSans-6f" x="56.677734"/>
      <use xlink:href="#DejaVuSans-77" x="117.859375"/>
      <use xlink:href="#DejaVuSans-65" x="199.646484"/>
      <use xlink:href="#DejaVuSans-72" x="261.169922"/>
      <use xlink:href="#DejaVuSans-20" x="302.283203"/>
      <use xlink:href="#DejaVuSans-28" x="334.070312"/>
      <use xlink:href="#DejaVuSans-57" x="373.083984"/>
      <use xlink:href="#DejaVuSans-29" x="471.960938"/>
     </g>
    </g>
   </g>
   <g id="line2d_16">
    <path d="M 64.91906 290.329002 
L 68.267973 290.329002 
L 69.224805 275.055758 
L 69.703221 242.997398 
L 70.181638 159.407365 
L 70.660054 127.885173 
L 71.13847 164.188194 
L 71.616886 224.246422 
L 72.573718 270.915352 
L 73.052134 287.126978 
L 73.530551 290.329002 
L 79.74996 290.329002 
L 80.706793 274.750441 
L 81.185209 242.684634 
L 81.663625 158.171201 
L 82.142041 128.12347 
L 82.620457 162.602031 
L 83.098873 223.226215 
L 84.055706 270.543014 
L 84.534122 286.784427 
L 85.012538 290.329002 
L 91.231948 290.329002 
L 92.18878 270.379185 
L 92.667196 241.158045 
L 93.145612 157.374396 
L 93.624028 130.983031 
L 94.102444 161.864801 
L 94.58086 223.799616 
L 95.537693 270.215356 
L 96.016109 286.575917 
L 96.494525 290.329002 
L 102.713935 290.329002 
L 103.192351 281.608919 
L 103.670767 270.461099 
L 104.149183 237.739976 
L 104.627599 158.141414 
L 105.106015 134.386206 
L 105.584432 161.12757 
L 106.062848 220.873034 
L 107.01968 269.239828 
L 107.498096 286.702512 
L 107.976512 290.329002 
L 114.195922 290.329002 
L 114.674338 281.735514 
L 115.152754 264.429213 
L 115.63117 234.612331 
L 116.109587 153.896753 
L 116.588003 123.75966 
L 117.066419 157.64248 
L 117.544835 210.760316 
L 118.023251 231.469793 
L 118.501667 262.701561 
L 118.980083 286.33762 
L 119.4585 290.329002 
L 125.677909 290.329002 
L 126.156325 287.633359 
L 126.634742 283.619548 
L 127.113158 248.359075 
L 127.591574 192.664656 
L 128.06999 199.768878 
L 128.548406 254.212239 
L 129.026822 259.931361 
L 129.505238 250.51864 
L 129.983655 275.941924 
L 130.462071 286.464215 
L 130.940487 290.329002 
L 137.159897 290.329002 
L 138.116729 271.563132 
L 138.595145 235.796368 
L 139.073561 145.221262 
L 139.551977 119.09798 
L 140.030393 136.322367 
L 140.50881 207.223009 
L 141.465642 267.52707 
L 141.944058 285.957835 
L 142.422474 290.329002 
L 148.641884 290.329002 
L 149.1203 280.164245 
L 149.598716 257.540947 
L 150.077132 242.133573 
L 150.555548 247.830354 
L 151.033964 231.842131 
L 151.512381 209.256067 
L 151.990797 224.157061 
L 152.469213 266.179204 
L 152.947629 280.804668 
L 153.426045 287.581231 
L 153.904461 290.329002 
L 160.123871 290.329002 
L 160.602287 287.72272 
L 161.080703 283.52274 
L 161.559119 266.186651 
L 162.037536 256.744142 
L 162.515952 268.644086 
L 162.994368 224.648548 
L 163.472784 209.501811 
L 163.9512 250.675022 
L 164.429616 277.423832 
L 164.908032 285.548262 
L 165.386449 290.329002 
L 171.605858 290.329002 
L 172.084274 281.482324 
L 172.562691 269.761102 
L 173.041107 230.740009 
L 173.519523 142.503189 
L 173.997939 155.497809 
L 174.476355 106.75123 
L 174.954771 192.850825 
L 175.433187 235.029351 
L 176.39002 284.096141 
L 176.868436 290.329002 
L 183.087846 290.329002 
L 184.044678 272.211091 
L 184.523094 234.359141 
L 185.00151 140.514901 
L 185.479926 110.735253 
L 185.958342 117.467137 
L 186.436759 197.482718 
L 186.915175 236.972958 
L 187.393591 264.555808 
L 187.872007 283.589761 
L 188.350423 290.329002 
L 194.569833 290.329002 
L 195.048249 278.220637 
L 195.526665 250.10162 
L 196.005081 253.676072 
L 196.483497 227.999596 
L 196.961914 242.386763 
L 197.44033 231.119794 
L 197.918746 156.249933 
L 198.397162 193.022101 
L 198.875578 256.111166 
L 199.353994 285.734432 
L 199.83241 290.329002 
L 206.05182 290.329002 
L 206.530236 282.152534 
L 207.965485 229.407037 
L 208.443901 223.114513 
L 208.922317 251.092041 
L 209.400733 266.700478 
L 209.879149 266.156864 
L 210.357565 279.270632 
L 210.835981 287.432296 
L 211.314398 290.329002 
L 217.533807 290.329002 
L 218.49064 268.070685 
L 218.969056 229.972991 
L 219.447472 203.983752 
L 219.925888 214.371837 
L 220.404304 95.052348 
L 220.88272 209.211387 
L 221.361136 239.705924 
L 222.317969 283.664229 
L 222.796385 290.329002 
L 229.015795 290.329002 
L 229.972627 274.460016 
L 230.451043 236.1836 
L 230.929459 136.240453 
L 231.407875 105.045918 
L 231.886291 98.328929 
L 232.364708 181.353007 
L 232.843124 236.384663 
L 233.32154 265.233464 
L 233.799956 283.053593 
L 234.278372 290.329002 
L 240.497782 290.329002 
L 241.454614 271.377052 
L 241.93303 232.16979 
L 242.411446 133.715997 
L 242.889863 106.423571 
L 243.368279 97.368295 
L 243.846695 173.928574 
L 244.325111 232.087875 
L 244.803527 262.627004 
L 245.281943 281.355729 
L 245.760359 290.329002 
L 251.979769 290.329002 
L 252.458185 279.151484 
L 252.936601 248.388862 
L 253.415018 194.116777 
L 253.893434 122.426688 
L 254.37185 93.860864 
L 254.850266 97.167232 
L 255.328682 154.864833 
L 255.807098 194.139117 
L 256.285514 255.105852 
L 256.76393 281.541898 
L 257.242347 290.329002 
L 263.461756 290.329002 
L 263.940172 272.933428 
L 264.418589 249.967578 
L 264.897005 215.548591 
L 266.332253 164.195641 
L 266.810669 180.578542 
L 267.289085 230.233628 
L 268.245918 280.223819 
L 268.724334 290.329002 
L 274.943744 290.329002 
L 275.42216 280.990837 
L 275.900576 245.573982 
L 276.378992 241.225066 
L 276.857408 244.702709 
L 277.335824 242.90059 
L 277.81424 258.114349 
L 278.292657 254.286707 
L 278.771073 202.062484 
L 279.727905 280.119564 
L 280.206321 290.329002 
L 286.425731 290.329002 
L 286.904147 283.537633 
L 287.382563 261.912203 
L 287.860979 228.215553 
L 288.339395 211.966693 
L 288.817812 230.456868 
L 289.296228 241.671873 
L 289.774644 262.902624 
L 290.25306 277.900426 
L 290.731476 285.205711 
L 291.209892 289.554626 
L 291.688308 290.329002 
L 297.907718 290.329002 
L 298.386134 287.074851 
L 298.86455 270.974926 
L 299.342967 270.058973 
L 300.299799 242.565485 
L 300.778215 263.170708 
L 301.256631 269.932378 
L 301.735047 279.650418 
L 302.691879 289.77803 
L 303.170296 290.329002 
L 309.389705 290.329002 
L 309.868122 282.271682 
L 310.824954 236.019771 
L 311.781786 69.279065 
L 312.738618 187.80936 
L 313.695451 236.079346 
L 314.173867 270.475993 
L 314.652283 290.329002 
L 320.393276 290.329002 
L 320.871693 289.830157 
L 321.828525 265.687717 
L 322.306941 215.340081 
L 322.785357 109.58845 
L 323.263773 69.331192 
L 323.742189 39.149419 
L 324.220606 108.344839 
L 324.699022 214.923062 
L 325.177438 258.404773 
L 325.655854 277.758937 
L 326.13427 290.329002 
L 331.875264 290.329002 
L 332.35368 289.457818 
L 332.832096 265.077082 
L 333.310512 259.856894 
L 333.788928 191.748703 
L 334.267344 91.351302 
L 334.745761 67.171628 
L 335.224177 31.918602 
L 335.702593 105.865063 
L 336.181009 227.240025 
L 336.659425 260.378168 
L 337.137841 277.922766 
L 337.616257 290.329002 
L 343.357251 290.329002 
L 343.835667 289.562073 
L 344.792499 262.515392 
L 345.270916 210.916698 
L 345.749332 107.629949 
L 346.227748 67.931199 
L 346.706164 43.62493 
L 347.18458 112.604394 
L 347.662996 213.530515 
L 348.141412 250.414385 
L 348.619828 275.971712 
L 349.098245 290.329002 
L 354.839238 290.329002 
L 355.317654 289.502499 
L 355.796071 273.432362 
L 356.274487 261.167526 
L 356.752903 211.162441 
L 357.231319 115.776719 
L 357.709735 108.20335 
L 358.188151 41.08558 
L 358.666567 115.113956 
L 359.144983 227.314493 
L 359.6234 261.294121 
L 360.101816 277.96 
L 360.580232 290.291857 
L 362.493896 290.329002 
L 366.321226 290.329002 
L 366.799642 289.390797 
L 367.756474 267.303667 
L 368.23489 210.343296 
L 368.713306 98.39595 
L 369.670138 35.865392 
L 370.148555 125.867097 
L 370.626971 191.629554 
L 371.583803 272.255772 
L 372.062219 289.971646 
L 372.540635 290.329002 
L 377.803213 290.329002 
L 378.281629 289.696115 
L 378.760045 276.440858 
L 379.716877 172.089221 
L 380.195293 149.369114 
L 380.67371 147.991461 
L 381.152126 175.604098 
L 381.630542 139.75533 
L 382.108958 198.785904 
L 382.587374 228.066617 
L 383.06579 290.329002 
L 391.677281 290.329002 
L 392.155697 77.902429 
L 392.634113 39.514311 
L 393.112529 165.550953 
L 394.069361 257.779244 
L 394.547778 283.746143 
L 395.026194 290.329002 
L 400.767187 290.329002 
L 401.245603 287.74506 
L 402.202436 245.253771 
L 402.680852 210.879464 
L 403.159268 123.960723 
L 403.637684 132.584087 
L 404.1161 156.302061 
L 405.072932 218.221983 
L 405.551349 259.916468 
L 406.029765 283.001466 
L 406.508181 290.329002 
L 408.900262 290.329002 
L 408.900262 290.329002 
" clip-path="url(#p001e711626)" style="fill: none; stroke: #1f77b4; stroke-width: 1.5; stroke-linecap: square"/>
   </g>
   <g id="line2d_17">
    <path d="M 64.91906 290.329091 
L 67.311141 290.329091 
L 67.789557 284.029397 
L 68.267973 260.964043 
L 68.746389 243.686997 
L 69.224805 176.29504 
L 69.703221 140.297489 
L 70.181638 55.936464 
L 70.660054 57.62109 
L 71.13847 87.561029 
L 71.616886 160.212264 
L 72.095302 194.741048 
L 72.573718 209.256737 
L 73.530551 281.324545 
L 74.008967 286.706398 
L 74.487383 290.287333 
L 75.922631 290.329091 
L 78.793128 290.329091 
L 79.271544 284.457084 
L 80.228376 239.503722 
L 80.706793 174.186595 
L 81.185209 134.955028 
L 81.663625 81.92265 
L 82.142041 62.530441 
L 82.620457 86.217875 
L 83.098873 157.802567 
L 83.577289 208.003166 
L 84.055706 210.02877 
L 85.012538 280.762674 
L 85.490954 286.676577 
L 85.96937 290.291946 
L 87.883035 290.329091 
L 90.275115 290.329091 
L 90.753531 283.845863 
L 91.231948 260.204438 
L 91.710364 242.471216 
L 92.18878 179.567968 
L 92.667196 145.488786 
L 93.145612 55.126948 
L 93.624028 56.750755 
L 94.58086 139.712588 
L 95.059277 205.240376 
L 95.537693 210.989448 
L 96.494525 281.069115 
L 96.972941 286.586834 
L 97.451357 290.291463 
L 98.886606 290.329091 
L 101.757103 290.329091 
L 102.235519 283.877071 
L 102.713935 258.781062 
L 103.192351 244.857142 
L 104.149183 124.486754 
L 104.627599 44.767549 
L 105.106015 56.812947 
L 105.584432 96.244022 
L 106.541264 206.731479 
L 107.01968 213.0693 
L 107.498096 244.087122 
L 107.976512 283.401835 
L 108.933345 290.277538 
L 110.368593 290.329091 
L 113.23909 290.329091 
L 113.717506 283.541356 
L 114.195922 261.281271 
L 114.674338 244.738187 
L 115.152754 180.945909 
L 115.63117 137.372405 
L 116.109587 68.565592 
L 116.588003 48.480464 
L 117.066419 87.040546 
L 117.544835 156.454862 
L 118.023251 197.000467 
L 118.501667 210.027717 
L 119.4585 280.776662 
L 119.936916 286.537959 
L 120.415332 290.269753 
L 121.372164 290.329091 
L 124.721077 290.329091 
L 125.199493 282.89934 
L 125.677909 267.036012 
L 126.156325 245.281843 
L 126.634742 185.024471 
L 127.113158 142.53727 
L 127.591574 77.41328 
L 128.06999 66.276841 
L 128.548406 95.245403 
L 129.505238 195.452898 
L 129.983655 208.992514 
L 130.462071 238.945859 
L 130.940487 282.839706 
L 131.897319 290.292986 
L 133.810984 290.329091 
L 136.203064 290.329091 
L 136.68148 282.160719 
L 137.638313 244.626754 
L 138.116729 180.210287 
L 138.595145 139.794243 
L 139.073561 47.531358 
L 139.551977 62.57216 
L 140.030393 92.587693 
L 140.987226 203.620231 
L 141.465642 211.770848 
L 142.422474 283.593407 
L 143.379306 290.293846 
L 145.292971 290.329091 
L 147.685052 290.329091 
L 148.163468 283.071353 
L 148.641884 265.328652 
L 149.1203 242.576406 
L 150.077132 130.069966 
L 150.555548 63.869132 
L 151.033964 48.661161 
L 151.512381 84.326353 
L 152.469213 214.519874 
L 152.947629 206.615901 
L 153.904461 281.965435 
L 154.861294 290.28423 
L 156.296542 290.329091 
L 159.167039 290.329091 
L 159.645455 283.977882 
L 160.602287 249.587429 
L 161.080703 173.074875 
L 161.559119 141.181469 
L 162.037536 74.528002 
L 162.515952 50.765649 
L 162.994368 74.604388 
L 163.472784 162.215294 
L 163.9512 212.403145 
L 164.429616 212.121683 
L 165.386449 282.049814 
L 166.343281 290.281675 
L 167.778529 290.329091 
L 170.649026 290.329091 
L 171.127442 282.393852 
L 171.605858 257.590556 
L 172.084274 245.617193 
L 172.562691 180.065039 
L 173.997939 48.119723 
L 175.433187 213.562589 
L 175.911604 208.884211 
L 176.868436 282.283609 
L 177.825268 290.277251 
L 179.260516 290.329091 
L 182.131013 290.329091 
L 182.609429 282.323669 
L 183.566262 248.472861 
L 184.523094 130.286666 
L 185.00151 81.633141 
L 185.479926 50.012501 
L 185.958342 78.409426 
L 186.436759 153.440528 
L 186.915175 203.769912 
L 187.393591 212.788156 
L 187.872007 240.014501 
L 188.350423 282.125558 
L 189.307255 290.293455 
L 191.22092 290.329091 
L 193.613001 290.329091 
L 194.091417 283.534274 
L 194.569833 260.686166 
L 195.048249 246.85324 
L 196.005081 128.703042 
L 196.483497 50.112624 
L 196.961914 50.802504 
L 197.44033 76.474747 
L 198.397162 208.227442 
L 198.875578 214.912275 
L 199.353994 254.434157 
L 199.83241 281.589556 
L 200.310826 286.668347 
L 200.789243 290.293586 
L 202.702907 290.329091 
L 205.094988 290.329091 
L 205.573404 283.693472 
L 206.530236 240.458757 
L 207.008652 176.553063 
L 207.487068 132.153258 
L 207.965485 69.948919 
L 208.443901 64.831171 
L 208.922317 79.321048 
L 209.400733 156.560222 
L 209.879149 209.477096 
L 210.357565 211.855979 
L 210.835981 242.374548 
L 211.314398 282.272392 
L 211.792814 286.936171 
L 212.27123 290.291303 
L 213.706478 290.329091 
L 216.576975 290.329091 
L 217.055391 282.583094 
L 217.533807 267.614615 
L 218.012223 245.428376 
L 218.49064 197.289935 
L 219.447472 49.210504 
L 219.925888 57.590764 
L 220.404304 95.27398 
L 220.88272 157.741621 
L 221.361136 205.128559 
L 221.839553 211.28523 
L 222.317969 239.885184 
L 222.796385 281.938453 
L 223.274801 286.7966 
L 223.753217 290.274429 
L 225.188466 290.329091 
L 228.058962 290.329091 
L 228.537378 283.667993 
L 229.494211 244.522868 
L 229.972627 169.984519 
L 230.929459 104.289756 
L 231.407875 34.483437 
L 232.364708 147.992704 
L 232.843124 204.888405 
L 233.32154 215.125738 
L 234.278372 282.193687 
L 235.235204 290.295762 
L 237.148869 290.329091 
L 239.54095 290.329091 
L 240.019366 282.624966 
L 240.497782 260.402406 
L 240.976198 247.743196 
L 242.411446 70.838556 
L 242.889863 57.258884 
L 243.368279 99.000815 
L 243.846695 160.075793 
L 244.325111 204.516091 
L 244.803527 210.106827 
L 245.281943 242.742492 
L 245.760359 283.347559 
L 246.717192 290.297044 
L 248.630856 290.329091 
L 251.022937 290.329091 
L 251.501353 283.274112 
L 252.458185 244.328311 
L 253.893434 57.647305 
L 254.37185 53.706954 
L 254.850266 98.155109 
L 255.328682 161.808283 
L 255.807098 205.650907 
L 256.285514 213.1541 
L 256.76393 243.267433 
L 257.242347 281.829963 
L 258.199179 290.289971 
L 259.634427 290.329091 
L 262.504924 290.329091 
L 262.98334 283.351092 
L 263.940172 245.578727 
L 265.375421 63.10733 
L 265.853837 58.055535 
L 266.332253 90.246715 
L 267.289085 217.691614 
L 267.767502 211.662098 
L 268.245918 239.642706 
L 268.724334 280.516496 
L 269.20275 286.414746 
L 269.681166 290.284123 
L 271.116415 290.329091 
L 273.986911 290.329091 
L 274.465327 284.003587 
L 274.943744 261.636233 
L 275.42216 247.463091 
L 276.857408 67.267023 
L 277.335824 50.980276 
L 277.81424 64.872458 
L 278.292657 154.98419 
L 278.771073 196.608586 
L 279.249489 215.223968 
L 280.206321 283.611256 
L 281.163153 290.28957 
L 282.598402 290.329091 
L 285.468899 290.329091 
L 285.947315 281.807842 
L 286.425731 262.938075 
L 286.904147 239.666742 
L 287.382563 191.012808 
L 288.339395 58.524995 
L 288.817812 55.530542 
L 289.296228 68.168236 
L 289.774644 159.936822 
L 290.25306 204.419017 
L 290.731476 209.179578 
L 291.688308 281.882173 
L 292.166724 287.269644 
L 292.645141 290.29249 
L 294.558805 290.329091 
L 296.950886 290.329091 
L 297.429302 282.934521 
L 298.386134 243.499463 
L 299.342967 131.888719 
L 299.821383 52.146645 
L 300.299799 63.93268 
L 300.778215 89.260012 
L 301.256631 157.142572 
L 301.735047 202.855624 
L 302.213463 208.951617 
L 302.691879 236.551982 
L 303.170296 282.297208 
L 304.127128 290.293728 
L 306.040792 290.329091 
L 308.432873 290.329091 
L 308.911289 281.579616 
L 309.389705 256.968528 
L 309.868122 244.92258 
L 310.346538 183.382963 
L 310.824954 145.719183 
L 311.30337 72.749334 
L 311.781786 67.522569 
L 312.260202 94.575146 
L 313.217034 211.618636 
L 313.695451 209.448768 
L 314.652283 281.767611 
L 315.130699 286.92416 
L 315.609115 290.286706 
L 317.044364 290.329091 
L 319.91486 290.329091 
L 320.393276 282.926718 
L 320.871693 260.683681 
L 321.350109 245.975646 
L 322.306941 131.026385 
L 322.785357 61.697405 
L 323.263773 66.095957 
L 323.742189 84.071854 
L 324.220606 168.073258 
L 324.699022 204.177352 
L 325.177438 213.473874 
L 325.655854 241.451398 
L 326.13427 281.984548 
L 327.091102 290.291979 
L 329.004767 290.329091 
L 331.396848 290.329091 
L 331.875264 284.330803 
L 332.35368 264.248098 
L 332.832096 250.272202 
L 334.267344 49.170303 
L 334.745761 63.366388 
L 335.224177 91.626603 
L 336.181009 206.9782 
L 336.659425 214.399003 
L 337.137841 243.23681 
L 337.616257 282.221938 
L 338.57309 290.291652 
L 340.008338 290.329091 
L 342.878835 290.329091 
L 343.357251 283.597797 
L 344.314083 242.007059 
L 345.270916 130.12671 
L 345.749332 44.629151 
L 346.227748 64.094361 
L 346.706164 70.389625 
L 347.18458 160.690241 
L 347.662996 207.221906 
L 348.141412 213.519964 
L 349.098245 282.91976 
L 350.055077 290.296279 
L 351.968741 290.329091 
L 354.360822 290.329091 
L 354.839238 285.224515 
L 355.317654 260.518759 
L 355.796071 248.480586 
L 356.274487 180.178621 
L 356.752903 137.644306 
L 357.709735 31.305849 
L 359.144983 208.365556 
L 359.6234 212.424493 
L 360.101816 241.383489 
L 360.580232 283.689291 
L 361.537064 290.298764 
L 363.450729 290.329091 
L 365.842809 290.329091 
L 366.321226 282.23846 
L 367.278058 240.285825 
L 368.713306 49.924223 
L 369.191722 61.406846 
L 369.670138 94.538153 
L 370.626971 206.590809 
L 371.105387 209.296905 
L 372.062219 281.08682 
L 372.540635 286.787006 
L 373.019051 290.287472 
L 374.4543 290.329091 
L 377.324797 290.329091 
L 377.803213 282.849466 
L 378.281629 258.635465 
L 378.760045 241.692152 
L 379.238461 195.710641 
L 380.195293 58.408678 
L 380.67371 56.227781 
L 381.152126 88.813532 
L 382.108958 198.138163 
L 382.587374 208.764155 
L 383.544206 282.475413 
L 384.501039 290.305059 
L 386.893119 290.329091 
L 388.806784 290.329091 
L 389.2852 283.396836 
L 389.763616 251.537629 
L 390.242032 238.577272 
L 391.198865 143.013533 
L 391.677281 55.483946 
L 392.634113 74.064785 
L 393.112529 157.706137 
L 393.590945 206.728492 
L 394.069361 208.628447 
L 395.026194 282.747826 
L 395.983026 290.282315 
L 397.418274 290.329091 
L 400.288771 290.329091 
L 400.767187 283.508577 
L 401.245603 265.848895 
L 401.72402 242.124195 
L 402.202436 199.403038 
L 403.159268 67.607541 
L 403.637684 24.110909 
L 404.1161 78.827907 
L 405.072932 209.534505 
L 405.551349 205.093406 
L 406.508181 282.450977 
L 407.465013 290.304545 
L 408.900262 290.329091 
L 408.900262 290.329091 
" clip-path="url(#p001e711626)" style="fill: none; stroke: #ff7f0e; stroke-width: 1.5; stroke-linecap: square"/>
   </g>
   <g id="patch_3">
    <path d="M 47.72 303.64 
L 47.72 10.8 
" style="fill: none; stroke: #000000; stroke-width: 0.8; stroke-linejoin: miter; stroke-linecap: square"/>
   </g>
   <g id="patch_4">
    <path d="M 426.099322 303.64 
L 426.099322 10.8 
" style="fill: none; stroke: #000000; stroke-width: 0.8; stroke-linejoin: miter; stroke-linecap: square"/>
   </g>
   <g id="patch_5">
    <path d="M 47.72 303.64 
L 426.099322 303.64 
" style="fill: none; stroke: #000000; stroke-width: 0.8; stroke-linejoin: miter; stroke-linecap: square"/>
   </g>
   <g id="patch_6">
    <path d="M 47.72 10.8 
L 426.099322 10.8 
" style="fill: none; stroke: #000000; stroke-width: 0.8; stroke-linejoin: miter; stroke-linecap: square"/>
   </g>
   <g id="legend_1">
    <g id="patch_7">
     <path d="M 54.72 48.15625 
L 109.268438 48.15625 
Q 111.268438 48.15625 111.268438 46.15625 
L 111.268438 17.8 
Q 111.268438 15.8 109.268438 15.8 
L 54.72 15.8 
Q 52.72 15.8 52.72 17.8 
L 52.72 46.15625 
Q 52.72 48.15625 54.72 48.15625 
z
" style="fill: #ffffff; opacity: 0.8; stroke: #cccccc; stroke-linejoin: miter"/>
    </g>
    <g id="line2d_18">
     <path d="M 56.72 23.898438 
L 66.72 23.898438 
L 76.72 23.898438 
" style="fill: none; stroke: #1f77b4; stroke-width: 1.5; stroke-linecap: square"/>
    </g>
    <g id="text_18">
     <!-- Real -->
     <g transform="translate(84.72 27.398438) scale(0.1 -0.1)">
      <defs>
       <path id="DejaVuSans-52" d="M 2841 2188 
Q 3044 2119 3236 1894 
Q 3428 1669 3622 1275 
L 4263 0 
L 3584 0 
L 2988 1197 
Q 2756 1666 2539 1819 
Q 2322 1972 1947 1972 
L 1259 1972 
L 1259 0 
L 628 0 
L 628 4666 
L 2053 4666 
Q 2853 4666 3247 4331 
Q 3641 3997 3641 3322 
Q 3641 2881 3436 2590 
Q 3231 2300 2841 2188 
z
M 1259 4147 
L 1259 2491 
L 2053 2491 
Q 2509 2491 2742 2702 
Q 2975 2913 2975 3322 
Q 2975 3731 2742 3939 
Q 2509 4147 2053 4147 
L 1259 4147 
z
" transform="scale(0.015625)"/>
       <path id="DejaVuSans-6c" d="M 603 4863 
L 1178 4863 
L 1178 0 
L 603 0 
L 603 4863 
z
" transform="scale(0.015625)"/>
      </defs>
      <use xlink:href="#DejaVuSans-52"/>
      <use xlink:href="#DejaVuSans-65" x="64.982422"/>
      <use xlink:href="#DejaVuSans-61" x="126.505859"/>
      <use xlink:href="#DejaVuSans-6c" x="187.785156"/>
     </g>
    </g>
    <g id="line2d_19">
     <path d="M 56.72 38.576563 
L 66.72 38.576563 
L 76.72 38.576563 
" style="fill: none; stroke: #ff7f0e; stroke-width: 1.5; stroke-linecap: square"/>
    </g>
    <g id="text_19">
     <!-- Fake -->
     <g transform="translate(84.72 42.076563) scale(0.1 -0.1)">
      <defs>
       <path id="DejaVuSans-46" d="M 628 4666 
L 3309 4666 
L 3309 4134 
L 1259 4134 
L 1259 2759 
L 3109 2759 
L 3109 2228 
L 1259 2228 
L 1259 0 
L 628 0 
L 628 4666 
z
" transform="scale(0.015625)"/>
       <path id="DejaVuSans-6b" d="M 581 4863 
L 1159 4863 
L 1159 1991 
L 2875 3500 
L 3609 3500 
L 1753 1863 
L 3688 0 
L 2938 0 
L 1159 1709 
L 1159 0 
L 581 0 
L 581 4863 
z
" transform="scale(0.015625)"/>
      </defs>
      <use xlink:href="#DejaVuSans-46"/>
      <use xlink:href="#DejaVuSans-61" x="48.394531"/>
      <use xlink:href="#DejaVuSans-6b" x="109.673828"/>
      <use xlink:href="#DejaVuSans-65" x="163.958984"/>
     </g>
    </g>
   </g>
  </g>
 </g>
 <defs>
  <clipPath id="p001e711626">
   <rect x="47.72" y="10.8" width="378.379322" height="292.84"/>
  </clipPath>
 </defs>
</svg>
